<?xml version="1.0" encoding="UTF-8"?>
<svg version="1.1" xmlns="http://www.w3.org/2000/svg" width="24" height="24">
<path d="M0 0 C2.4375 0.375 2.4375 0.375 5 1 C5.33 1.66 5.66 2.32 6 3 C9.27555608 3.47001033 9.27555608 3.47001033 13.0625 3.625 C14.99802734 3.73714844 14.99802734 3.73714844 16.97265625 3.8515625 C18.47119141 3.92503906 18.47119141 3.92503906 20 4 C19.25 10.625 19.25 10.625 17 14 C14.3984375 14.29296875 14.3984375 14.29296875 11.375 14.1875 C9.87066406 14.14689453 9.87066406 14.14689453 8.3359375 14.10546875 C7.56507812 14.07066406 6.79421875 14.03585938 6 14 C5.3291288 12.3767313 4.66342971 10.75132422 4 9.125 C3.62875 8.22007813 3.2575 7.31515625 2.875 6.3828125 C2 4 2 4 2 2 C1.34 2 0.68 2 0 2 C0 1.34 0 0.68 0 0 Z M7 6 C7.66 7.98 8.32 9.96 9 12 C10.98 12 12.96 12 15 12 C15.66 10.02 16.32 8.04 17 6 C13.7 6 10.4 6 7 6 Z " fill="#000000" transform="translate(2,3)"/>
<path d="M0 0 C0.99 0 1.98 0 3 0 C3 0.99 3 1.98 3 3 C2.01 3 1.02 3 0 3 C0 2.01 0 1.02 0 0 Z " fill="#000000" transform="translate(16,18)"/>
<path d="M0 0 C0.99 0 1.98 0 3 0 C3 0.99 3 1.98 3 3 C2.01 3 1.02 3 0 3 C0 2.01 0 1.02 0 0 Z " fill="#000000" transform="translate(9,18)"/>
</svg>
