<?xml version="1.0" encoding="UTF-8"?>
<svg version="1.1" xmlns="http://www.w3.org/2000/svg" width="24" height="24">
<path d="M0 0 C5.94 0 11.88 0 18 0 C18 6.6 18 13.2 18 20 C12.06 20 6.12 20 0 20 C0 18.35 0 16.7 0 15 C-0.66 15 -1.32 15 -2 15 C-2 14.34 -2 13.68 -2 13 C-1.34 13 -0.68 13 0 13 C0 12.34 0 11.68 0 11 C-0.66 11 -1.32 11 -2 11 C-2 10.34 -2 9.68 -2 9 C-1.34 9 -0.68 9 0 9 C0 8.34 0 7.68 0 7 C-0.66 7 -1.32 7 -2 7 C-2 6.34 -2 5.68 -2 5 C-1.34 5 -0.68 5 0 5 C0 3.35 0 1.7 0 0 Z M7 4 C7 5.32 7 6.64 7 8 C8.32 8 9.64 8 11 8 C11 6.68 11 5.36 11 4 C9.68 4 8.36 4 7 4 Z M4 13 C3.67 13.99 3.34 14.98 3 16 C6.63 16 10.26 16 14 16 C13.67 14.68 13.34 13.36 13 12 C9.28390294 10.96775082 7.21421745 10.70413039 4 13 Z " fill="#000000" transform="translate(4,2)"/>
</svg>
