<?xml version="1.0" encoding="UTF-8"?>
<svg version="1.1" xmlns="http://www.w3.org/2000/svg" width="24" height="24">
<path d="M0 0 C3.125 1.5 3.125 1.5 5 4 C5.69562429 6.8288721 5.71680254 9.17358349 5 12 C1.07797263 16.39742462 -4.51238721 18.17079574 -10 20 C-10 18.35 -10 16.7 -10 15 C-10.639375 14.690625 -11.27875 14.38125 -11.9375 14.0625 C-14 13 -14 13 -15 12 C-15.69565217 4.92753623 -15.69565217 4.92753623 -13.125 1.5 C-8.68059621 -0.63331382 -4.8421354 -0.76204098 0 0 Z M-11 4 C-11.9363921 7.29945591 -11.9363921 7.29945591 -12 11 C-9.69931981 13.49210521 -9.69931981 13.49210521 -7 15 C-2.10437307 13.12297673 -2.10437307 13.12297673 2 10 C2.06546898 7.48952515 2.06546898 7.48952515 1 5 C-3.77004592 1.45304278 -5.71096623 1.77303841 -11 4 Z " fill="#000000" transform="translate(17,2)"/>
</svg>
